<?xml version="1.0" encoding="UTF-8"?>
<!DOCTYPE svg PUBLIC "-//W3C//DTD SVG 1.1//EN" "http://www.w3.org/Graphics/SVG/1.1/DTD/svg11.dtd">
<!-- Creator: CorelDRAW 2017 -->
<svg xmlns="http://www.w3.org/2000/svg" xml:space="preserve" width="3.6in" height="3.6in" version="1.1" style="shape-rendering:geometricPrecision; text-rendering:geometricPrecision; image-rendering:optimizeQuality; fill-rule:evenodd; clip-rule:evenodd"
viewBox="0 0 3600 3600"
 xmlns:xlink="http://www.w3.org/1999/xlink">
 <defs>
  <style type="text/css">
   <![CDATA[
    .str2 {stroke:#4D7E46;stroke-width:6.66535}
    .str0 {stroke:#65273C;stroke-width:6.66535}
    .str4 {stroke:white;stroke-width:6.66535}
    .str3 {stroke:#65273C;stroke-width:6.94488}
    .str1 {stroke:white;stroke-width:6.94488}
    .fil2 {fill:#4D7E46}
    .fil0 {fill:#65273C}
    .fil1 {fill:white}
    .fil3 {fill:white}
   ]]>
  </style>
 </defs>
 <g id="Layer_x0020_1">
  <metadata id="CorelCorpID_0Corel-Layer"/>
  <path class="fil0 str0" d="M949 1848c0,0 76,158 218,307 68,72 173,118 191,206 13,64 8,139 8,205l0 712c240,0 390,0 390,0l-3 -2487c0,-45 12,-97 -43,-115 -67,-22 -193,16 -257,39 -68,25 -130,60 -199,79 -102,28 -320,63 -370,-94 -11,-34 -16,-86 -18,-121 -1,-27 7,-129 -19,-137 -23,-7 -61,63 -71,84 -61,131 -73,364 147,500 35,22 123,53 142,73 43,45 -47,76 -77,84 -41,12 -101,20 -171,8 -94,-17 -101,-35 -168,-78 -38,-24 -92,-37 -111,61 -18,93 -6,220 33,305 35,77 103,162 232,218 54,23 131,25 148,86 4,16 5,37 -2,63z"/>
  <ellipse class="fil1 str1" cx="1321" cy="1883" rx="170" ry="157"/>
  <path class="fil2 str2" d="M1366 3278c-288,0 -622,0 -832,0 -84,0 -168,8 -237,-51 -80,-69 -78,-163 -77,-257 1,-160 2,-608 1,-843 0,-80 -13,-194 53,-250 50,-43 166,-28 231,-28l446 0c0,0 76,158 218,307 68,72 173,118 191,206 13,64 8,139 8,205l0 712z"/>
  <path class="fil2 str2" d="M2212 3278l0 -643c60,-3 83,-77 83,-77 67,68 127,89 178,94 89,8 222,-70 270,-145 87,-136 52,-375 52,-375 77,7 140,-80 140,-80 217,-13 293,-237 293,-237 -3,197 148,155 148,155 0,0 8,1005 2,1165 -7,160 -135,142 -135,142l-1032 1z"/>
  <path class="fil0 str3" d="M2935 2052c0,0 -63,87 -140,80 0,0 36,239 -52,375 -48,75 -182,153 -270,145 -51,-5 -112,-26 -178,-94 0,0 -23,73 -83,77l0 643 -357 0 0 -2617c0,0 15,-343 355,-341 84,1 127,24 180,98 50,69 94,187 81,386 0,0 353,97 267,503 0,0 511,148 197,743z"/>
  <path class="fil3 str4" d="M1929 682l-13 1733c0,0 0,111 85,152 44,21 108,19 152,1 88,-35 109,-130 109,-223 0,0 60,140 148,186 50,26 107,12 156,-12 48,-24 103,-70 134,-156 40,-113 22,-250 -65,-337 0,0 149,40 249,-53 96,-90 116,-304 61,-418 -40,-82 -127,-157 -309,-166 0,0 213,-443 -263,-487 0,0 73,-230 -17,-378 -48,-80 -158,-140 -250,-107 -73,26 -168,99 -177,265z"/>
 </g>
</svg>
